<?xml version="1.0" encoding="UTF-8" standalone="no"?>
<svg
   xmlns:ooo="http://xml.openoffice.org/svg/export"
   xmlns:dc="http://purl.org/dc/elements/1.1/"
   xmlns:cc="http://creativecommons.org/ns#"
   xmlns:rdf="http://www.w3.org/1999/02/22-rdf-syntax-ns#"
   xmlns:svg="http://www.w3.org/2000/svg"
   xmlns="http://www.w3.org/2000/svg"
   xmlns:sodipodi="http://sodipodi.sourceforge.net/DTD/sodipodi-0.dtd"
   xmlns:inkscape="http://www.inkscape.org/namespaces/inkscape"
   version="1.2"
   width="512"
   height="512"
   viewBox="0 0 13546.666 13546.667"
   preserveAspectRatio="xMidYMid"
   fill-rule="evenodd"
   stroke-width="28.222"
   stroke-linejoin="round"
   xml:space="preserve"
   id="svg98"
   sodipodi:docname="validator-icon.svg"
   inkscape:export-filename="/home/lslezak/Dokumenty/validator-icon.png"
   inkscape:export-xdpi="96"
   inkscape:export-ydpi="96"
   inkscape:version="1.0.1 (3bc2e813f5, 2020-09-07)"><metadata
   id="metadata102"><rdf:RDF><cc:Work
       rdf:about=""><dc:format>image/svg+xml</dc:format><dc:type
         rdf:resource="http://purl.org/dc/dcmitype/StillImage" /><dc:title></dc:title></cc:Work></rdf:RDF></metadata><sodipodi:namedview
   pagecolor="#ffffff"
   bordercolor="#666666"
   borderopacity="1"
   objecttolerance="10"
   gridtolerance="10"
   guidetolerance="10"
   inkscape:pageopacity="0"
   inkscape:pageshadow="2"
   inkscape:window-width="1478"
   inkscape:window-height="1180"
   id="namedview100"
   showgrid="false"
   units="px"
   inkscape:zoom="0.55945567"
   inkscape:cx="396.85039"
   inkscape:cy="561.25984"
   inkscape:window-x="757"
   inkscape:window-y="293"
   inkscape:window-maximized="0"
   inkscape:current-layer="svg98" />
 <defs
   class="ClipPathGroup"
   id="defs8">
  <clipPath
   id="presentation_clip_path"
   clipPathUnits="userSpaceOnUse">
   <rect
   x="0"
   y="0"
   width="21000"
   height="29700"
   id="rect2" />
  </clipPath>
  <clipPath
   id="presentation_clip_path_shrink"
   clipPathUnits="userSpaceOnUse">
   <rect
   x="21"
   y="29"
   width="20958"
   height="29641"
   id="rect5" />
  </clipPath>
 </defs>
 <defs
   class="TextShapeIndex"
   id="defs12">
  <g
   ooo:slide="id1"
   ooo:id-list="id3 id4 id5 id6"
   id="g10" />
 </defs>
 <defs
   class="EmbeddedBulletChars"
   id="defs44">
  <g
   id="bullet-char-template-57356"
   transform="matrix(4.8828125e-4,0,0,-4.8828125e-4,0,0)">
   <path
   d="M 580,1141 1163,571 580,0 -4,571 Z"
   id="path14" />
  </g>
  <g
   id="bullet-char-template-57354"
   transform="matrix(4.8828125e-4,0,0,-4.8828125e-4,0,0)">
   <path
   d="M 8,1128 H 1137 V 0 H 8 Z"
   id="path17" />
  </g>
  <g
   id="bullet-char-template-10146"
   transform="matrix(4.8828125e-4,0,0,-4.8828125e-4,0,0)">
   <path
   d="M 174,0 602,739 174,1481 1456,739 Z M 1358,739 309,1346 659,739 Z"
   id="path20" />
  </g>
  <g
   id="bullet-char-template-10132"
   transform="matrix(4.8828125e-4,0,0,-4.8828125e-4,0,0)">
   <path
   d="M 2015,739 1276,0 H 717 l 543,543 H 174 v 393 h 1086 l -543,545 h 557 z"
   id="path23" />
  </g>
  <g
   id="bullet-char-template-10007"
   transform="matrix(4.8828125e-4,0,0,-4.8828125e-4,0,0)">
   <path
   d="m 0,-2 c -7,16 -16,29 -25,39 l 381,530 c -94,256 -141,385 -141,387 0,25 13,38 40,38 9,0 21,-2 34,-5 21,4 42,12 65,25 l 27,-13 111,-251 280,301 64,-25 24,25 c 21,-10 41,-24 62,-43 C 886,937 835,863 770,784 769,783 710,716 594,584 L 774,223 c 0,-27 -21,-55 -63,-84 l 16,-20 C 717,90 699,76 672,76 641,76 570,178 457,381 L 164,-76 c -22,-34 -53,-51 -92,-51 -42,0 -63,17 -64,51 -7,9 -10,24 -10,44 0,9 1,19 2,30 z"
   id="path26" />
  </g>
  <g
   id="bullet-char-template-10004"
   transform="matrix(4.8828125e-4,0,0,-4.8828125e-4,0,0)">
   <path
   d="M 285,-33 C 182,-33 111,30 74,156 52,228 41,333 41,471 c 0,78 14,145 41,201 34,71 87,106 158,106 53,0 88,-31 106,-94 l 23,-176 c 8,-64 28,-97 59,-98 l 735,706 c 11,11 33,17 66,17 42,0 63,-15 63,-46 V 965 c 0,-36 -10,-64 -30,-84 L 442,47 C 390,-6 338,-33 285,-33 Z"
   id="path29" />
  </g>
  <g
   id="bullet-char-template-9679"
   transform="matrix(4.8828125e-4,0,0,-4.8828125e-4,0,0)">
   <path
   d="M 813,0 C 632,0 489,54 383,161 276,268 223,411 223,592 c 0,181 53,324 160,431 106,107 249,161 430,161 179,0 323,-54 432,-161 108,-107 162,-251 162,-431 0,-180 -54,-324 -162,-431 C 1136,54 992,0 813,0 Z"
   id="path32" />
  </g>
  <g
   id="bullet-char-template-8226"
   transform="matrix(4.8828125e-4,0,0,-4.8828125e-4,0,0)">
   <path
   d="m 346,457 c -73,0 -137,26 -191,78 -54,51 -81,114 -81,188 0,73 27,136 81,188 54,52 118,78 191,78 73,0 134,-26 185,-79 51,-51 77,-114 77,-187 0,-75 -25,-137 -76,-188 -50,-52 -112,-78 -186,-78 z"
   id="path35" />
  </g>
  <g
   id="bullet-char-template-8211"
   transform="matrix(4.8828125e-4,0,0,-4.8828125e-4,0,0)">
   <path
   d="M -4,459 H 1135 V 606 H -4 Z"
   id="path38" />
  </g>
  <g
   id="bullet-char-template-61548"
   transform="matrix(4.8828125e-4,0,0,-4.8828125e-4,0,0)">
   <path
   d="m 173,740 c 0,163 58,303 173,419 116,115 255,173 419,173 163,0 302,-58 418,-173 116,-116 174,-256 174,-419 0,-163 -58,-303 -174,-418 C 1067,206 928,148 765,148 601,148 462,206 346,322 231,437 173,577 173,740 Z"
   id="path41" />
  </g>
 </defs>
 <g
   id="g49">
  <g
   id="id2"
   class="Master_Slide">
   <g
   id="bg-id2"
   class="Background" />
   <g
   id="bo-id2"
   class="BackgroundObjects" />
  </g>
 </g>
 <g
   class="SlideGroup"
   id="g96"
   transform="matrix(1.4120684,0,0,1.4555167,-3733.8679,-10199.447)">
  <g
   id="g94">
   <g
   id="container-id1">
    <g
   id="id1"
   class="Slide"
   clip-path="url(#presentation_clip_path)">
     <g
   class="Page"
   id="g90">
      <g
   class="com.sun.star.drawing.CustomShape"
   id="g65">
       <g
   id="id3">
        <rect
   class="BoundingBox"
   stroke="none"
   fill="none"
   x="3019"
   y="7371"
   width="8844"
   height="8580"
   id="rect51" />
        <g
   id="g62">
         <defs
   id="defs58">
          <linearGradient
   id="gradient1"
   x1="4478"
   y1="6529"
   x2="10403"
   y2="16792"
   gradientUnits="userSpaceOnUse">
           <stop
   offset="0"
   style="stop-color:rgb(180,199,220)"
   id="stop53" />
           <stop
   offset="1"
   style="stop-color:rgb(52,101,164)"
   id="stop55" />
          </linearGradient>
         </defs>
         <path
   style="fill:url(#gradient1)"
   d="m 4448,7371 h 1 l -94,3 -93,9 -92,16 -91,21 -90,27 -87,33 -85,38 -83,45 -80,49 -76,55 -72,59 -68,64 -64,68 -59,72 -55,76 -49,80 -45,83 -38,85 -33,87 -27,90 -21,91 -16,92 -9,93 -3,94 v 5719 0 l 3,94 9,93 16,92 21,91 27,90 33,87 38,85 45,83 49,80 55,76 59,72 64,68 68,64 72,59 76,55 80,49 83,45 85,38 87,33 90,27 91,21 92,16 93,9 94,3 h 5983 v 0 l 94,-3 93,-9 92,-16 91,-21 90,-27 87,-33 85,-38 83,-45 80,-49 76,-55 72,-59 68,-64 64,-68 59,-72 55,-76 49,-80 45,-83 38,-85 33,-87 27,-90 21,-91 16,-92 9,-93 3,-94 v -5720 1 0 l -3,-94 -9,-93 -16,-92 -21,-91 -27,-90 -33,-87 -38,-85 -45,-83 -49,-80 -55,-76 -59,-72 -64,-68 -68,-64 -72,-59 -76,-55 -80,-49 -83,-45 -85,-38 -87,-33 -90,-27 -91,-21 -92,-16 -93,-9 -94,-3 z"
   id="path60" />
        </g>
       </g>
      </g>
      <g
   class="Group"
   id="g81">
       <g
   class="com.sun.star.drawing.ClosedBezierShape"
   id="g72">
        <g
   id="id4">
         <rect
   class="BoundingBox"
   stroke="none"
   fill="none"
   x="4033"
   y="9028"
   width="1694"
   height="5262"
   id="rect67" />
         <path
   fill="#000000"
   stroke="none"
   d="m 5354,14289 c -120,0 -225,-19 -316,-56 -91,-38 -167,-92 -227,-162 -61,-70 -107,-154 -138,-253 -31,-99 -47,-212 -47,-336 v -995 c 0,-116 -13,-214 -40,-295 -26,-81 -65,-147 -115,-199 -51,-51 -113,-90 -187,-115 -73,-26 -157,-41 -250,-44 v -350 c 93,-4 177,-19 250,-45 74,-25 136,-64 187,-115 50,-52 89,-118 115,-199 27,-81 40,-178 40,-292 v -998 c 0,-259 61,-458 183,-598 123,-139 304,-209 545,-209 h 372 v 356 h -174 c -167,0 -286,49 -357,147 -70,98 -106,247 -106,445 v 981 c 0,92 -14,177 -41,254 -28,77 -65,145 -113,204 -48,58 -104,108 -170,148 -65,41 -135,70 -210,89 v 5 c 79,18 151,48 216,88 65,41 121,91 168,151 47,59 84,128 110,205 27,77 40,162 40,256 v 984 c 0,195 36,342 106,442 71,100 190,150 357,150 h 174 v 356 z"
   id="path69" />
        </g>
       </g>
       <g
   class="com.sun.star.drawing.ClosedBezierShape"
   id="g79">
        <g
   id="id5">
         <rect
   class="BoundingBox"
   stroke="none"
   fill="none"
   x="9053"
   y="9028"
   width="1692"
   height="5262"
   id="rect74" />
         <path
   fill="#000000"
   stroke="none"
   d="m 9219,13933 c 167,0 287,-50 360,-150 72,-100 109,-247 109,-442 v -984 c 0,-94 12,-179 38,-256 26,-77 62,-146 109,-205 47,-60 103,-110 168,-151 65,-40 137,-70 216,-88 v -5 c -77,-19 -147,-48 -212,-89 -64,-40 -120,-90 -168,-148 -48,-59 -85,-127 -111,-204 -27,-77 -40,-162 -40,-254 v -981 c 0,-198 -37,-347 -109,-445 -73,-98 -193,-147 -360,-147 h -165 v -356 h 363 c 241,0 423,70 545,209 122,140 183,339 183,598 v 998 c 0,114 13,211 40,292 27,81 65,147 116,199 50,51 113,90 187,115 75,26 160,41 255,45 v 350 c -95,3 -180,18 -255,44 -74,25 -137,64 -187,115 -51,52 -89,118 -116,199 -27,81 -40,179 -40,295 v 995 c 0,124 -16,237 -47,336 -31,99 -77,183 -138,253 -60,70 -136,124 -227,162 -91,37 -196,56 -316,56 h -363 v -356 z"
   id="path76" />
        </g>
       </g>
      </g>
      <g
   class="com.sun.star.drawing.ClosedBezierShape"
   id="g88">
       <g
   id="id6">
        <rect
   class="BoundingBox"
   stroke="none"
   fill="none"
   x="6202"
   y="9896"
   width="2363"
   height="3451"
   id="rect83" />
        <path
   fill="#ffffff"
   stroke="none"
   d="m 8564,10856 c 0,114 -15,215 -45,301 -30,87 -70,165 -119,233 -50,69 -107,130 -170,183 -64,54 -129,105 -195,154 -66,48 -130,95 -194,142 -63,47 -120,97 -171,152 -51,55 -92,115 -123,182 -31,67 -48,144 -49,233 h -422 c 3,-111 20,-209 51,-292 32,-84 72,-158 122,-222 50,-64 106,-122 169,-172 63,-51 126,-99 191,-145 64,-46 127,-92 189,-138 62,-45 117,-97 165,-153 48,-56 87,-120 117,-190 30,-71 45,-154 45,-249 0,-95 -17,-179 -51,-253 -34,-74 -82,-136 -143,-187 -62,-51 -137,-89 -225,-114 -87,-26 -185,-39 -293,-39 -225,0 -403,56 -535,169 -132,112 -209,267 -232,463 l -443,-29 c 17,-135 53,-263 107,-382 54,-120 129,-225 227,-315 97,-90 217,-161 361,-214 144,-52 314,-78 510,-78 184,0 347,23 490,68 143,45 264,108 363,191 99,83 174,184 225,303 52,119 78,252 78,398 z m -1508,2489 v -485 h 471 v 485 z"
   id="path85" />
       </g>
      </g>
     </g>
    </g>
   </g>
  </g>
 </g>
</svg>
